<svg width="518" height="653" viewBox="0 0 518 653" fill="none" xmlns="http://www.w3.org/2000/svg">
<path d="M392.483 562.374C362.726 541.592 355.985 503.015 357.16 468.327C357.352 462.549 356.717 456.425 359.471 451.359C362.225 446.294 368.658 442.808 373.839 445.235C378.134 447.257 380.002 452.264 382.41 456.405C385.622 461.921 390.329 466.414 395.988 469.367C399.667 471.293 404.231 472.449 407.871 470.446C412.879 467.692 413.457 460.816 413.418 455.038C413.418 444.291 413.354 433.557 413.226 422.835C412.88 417.078 413.465 411.303 414.959 405.732C416.75 400.262 420.737 395.197 426.188 393.656C431.638 392.115 438.437 395.293 439.67 400.917C439.882 403.299 439.94 405.692 439.843 408.082C439.997 410.489 441.114 413.128 443.368 413.86C445.621 414.592 447.971 412.916 449.704 411.221C455.636 405.443 459.681 397.913 463.437 390.478C467.192 383.044 470.871 375.398 476.264 369.061C481.656 362.725 489.11 357.698 497.45 357.216C505.789 356.735 514.476 361.858 516.556 369.947C518.636 378.036 513.917 386.299 508.852 392.867C501.208 402.615 492.198 411.21 482.099 418.386C480.128 419.462 478.555 421.144 477.612 423.182C476.36 427.034 480 430.886 483.794 432.099C488.089 433.524 492.75 433.081 497.276 433.621C501.802 434.16 506.617 436.124 508.332 440.362C510.681 446.255 505.751 452.418 500.916 456.463C491.209 464.552 480.187 470.917 468.329 475.28C464.091 476.821 459.642 478.188 456.214 481.154C452.786 484.12 450.744 489.301 452.805 493.365C454.866 497.429 460.162 498.72 464.611 497.891C469.06 497.063 473.009 494.675 477.246 493.076C485.162 490.091 495.37 490.63 500.358 497.468C501.903 499.823 502.882 502.504 503.216 505.302C503.55 508.099 503.231 510.935 502.284 513.588C500.356 518.868 497.39 523.708 493.559 527.821C480.945 542.893 464.555 554.345 446.064 561.006C427.709 567.362 410.703 569.096 392.463 562.412" fill="#DCD3FD"/>
<path d="M508.081 361.974C508.081 361.974 507.908 362.166 507.523 362.513L505.808 364.034C504.306 365.383 502.091 367.347 499.299 369.947C491.381 377.299 484.028 385.237 477.304 393.695C473.009 399.03 468.56 405.078 463.822 411.645C459.084 418.213 454.192 425.301 449.338 432.831C444.164 440.772 439.425 448.989 435.143 457.445C432.909 461.856 430.945 466.459 428.923 471.159L422.952 485.507C415.082 503.581 408.227 522.08 402.421 540.918C397.743 556.332 394.519 572.149 392.791 588.163C391.671 598.97 391.49 609.855 392.251 620.693C392.56 624.545 392.849 627.492 393.118 629.495C393.234 630.458 393.311 631.228 393.388 631.787V632.577C393.305 632.326 393.247 632.068 393.214 631.806C393.118 631.248 393.003 630.497 392.849 629.534C392.502 627.608 392.136 624.564 391.789 620.712C390.86 609.854 390.924 598.933 391.982 588.086C393.603 572.003 396.757 556.112 401.4 540.629C407.158 521.738 413.994 503.193 421.873 485.084L427.998 470.793C430.02 466.112 432.004 461.471 434.258 457.041C438.569 448.559 443.346 440.323 448.568 432.369C453.498 424.665 458.467 417.693 463.148 411.183C467.828 404.673 472.354 398.587 476.63 393.271C483.422 384.836 490.874 376.953 498.913 369.697C501.764 367.135 504.037 365.209 505.577 363.919L507.369 362.474C507.588 362.283 507.827 362.115 508.081 361.974V361.974Z" fill="#263238"/>
<path d="M434.508 457.002C434.236 456.209 434.049 455.389 433.95 454.556C433.641 452.958 433.295 450.704 432.89 447.777C432.062 441.999 431.215 434.083 430.309 425.32C429.404 416.556 428.383 408.621 427.536 402.901C427.093 400.051 426.708 397.759 426.438 396.16C426.228 395.342 426.118 394.501 426.111 393.656C426.442 394.428 426.682 395.236 426.823 396.064C427.247 397.643 427.729 399.916 428.268 402.785C429.366 408.563 430.444 416.422 431.349 425.204C432.255 433.987 433.025 441.691 433.622 447.681C433.911 450.377 434.161 452.669 434.354 454.499C434.504 455.324 434.555 456.165 434.508 457.002V457.002Z" fill="#263238"/>
<path d="M508.621 443.174C507.683 443.378 506.729 443.494 505.77 443.52C503.844 443.694 501.109 443.925 497.719 444.31C490.94 445.042 481.618 446.39 471.391 448.316C461.164 450.242 451.977 452.418 445.371 454.094C442.077 454.942 439.419 455.712 437.667 456.232C436.731 456.564 435.763 456.797 434.778 456.925C435.668 456.478 436.596 456.11 437.551 455.828C439.362 455.192 441.981 454.306 445.255 453.362C451.823 451.436 461.01 449.144 471.275 447.18C479.971 445.517 488.746 444.296 497.565 443.52C500.974 443.231 503.729 443.116 505.655 443.077C506.644 443.01 507.638 443.042 508.621 443.174Z" fill="#263238"/>
<path d="M402.344 539.281C402.138 539.002 401.97 538.698 401.843 538.376L400.572 535.699C399.474 533.368 397.991 529.921 396.219 525.703C392.637 517.228 388.072 505.364 383.219 492.19C378.365 479.017 373.897 467.153 370.507 458.582C368.851 454.422 367.483 451.013 366.462 448.47L365.384 445.716C365.234 445.399 365.131 445.061 365.076 444.715C365.281 444.993 365.449 445.298 365.576 445.62L366.848 448.297C367.926 450.627 369.428 454.075 371.2 458.293C374.783 466.767 379.347 478.631 384.201 491.805C389.054 504.979 393.523 516.843 396.912 525.414C398.569 529.574 399.936 532.983 400.938 535.525C401.381 536.623 401.747 537.451 402.036 538.28C402.185 538.597 402.289 538.934 402.344 539.281V539.281Z" fill="#263238"/>
<path d="M500.724 507.56C500.416 507.737 500.085 507.873 499.742 507.964L496.891 508.927L486.356 512.336C477.458 515.225 465.17 519.347 451.688 523.892C438.206 528.438 425.86 532.482 416.904 535.179C412.436 536.546 408.796 537.586 406.273 538.28L403.365 539.031C403.027 539.138 402.678 539.209 402.325 539.243C402.633 539.066 402.963 538.93 403.307 538.838L406.157 537.875L416.693 534.466C425.591 531.577 437.879 527.455 451.361 522.91C464.843 518.365 477.169 514.32 486.125 511.624C490.612 510.256 494.233 509.216 496.776 508.523L499.684 507.772C500.022 507.664 500.371 507.593 500.724 507.56V507.56Z" fill="#263238"/>
<path d="M460.586 40.37L450.667 43.9138L446.411 30.9518C438.591 7.05018 413.669 -5.64216 390.769 2.42778C367.869 10.4977 355.677 36.7106 363.497 60.6122L367.753 73.5742L357.796 77.1373C353.999 78.61 350.915 81.4893 349.186 85.1767C347.457 88.864 347.216 93.0758 348.512 96.9366L376.112 181.276C376.685 183.187 377.636 184.964 378.909 186.5C380.182 188.037 381.751 189.301 383.522 190.219C385.294 191.137 387.232 191.69 389.221 191.844C391.21 191.999 393.21 191.752 395.102 191.118L497.893 154.351C501.74 152.88 504.867 149.976 506.616 146.247C508.366 142.519 508.601 138.257 507.272 134.359L479.654 50.0192C479.066 48.1134 478.1 46.3454 476.814 44.8209C475.528 43.2964 473.948 42.0466 472.169 41.1461C470.389 40.2455 468.446 39.7127 466.456 39.5793C464.466 39.446 462.47 39.7149 460.586 40.37V40.37ZM382.237 53.852C380.128 47.6372 380.507 40.8476 383.293 34.9056C386.079 28.9637 391.056 24.3305 397.182 21.9767C400.207 20.9417 403.41 20.5267 406.599 20.7563C409.788 20.986 412.897 21.8557 415.743 23.3135C418.588 24.7712 421.111 26.7872 423.16 29.2412C425.21 31.6952 426.744 34.5368 427.671 37.5965L431.908 50.5585L386.474 66.814L382.237 53.852ZM440.016 128.696L447.066 150.229C447.195 150.661 447.153 151.126 446.949 151.527C446.744 151.929 446.393 152.237 445.968 152.386L436.088 155.911C435.694 156.02 435.274 155.972 434.915 155.778C434.556 155.585 434.286 155.259 434.162 154.871L427.055 133.434C423.136 133.221 419.376 131.815 416.278 129.406C413.18 126.996 410.892 123.698 409.721 119.952C408.045 115 408.351 109.592 410.573 104.861C412.795 100.129 416.762 96.4407 421.643 94.5676C424.052 93.7443 426.603 93.4146 429.143 93.598C431.683 93.7814 434.16 94.4743 436.426 95.6354C438.692 96.7964 440.702 98.4018 442.334 100.356C443.967 102.31 445.19 104.573 445.929 107.01C447.169 110.814 447.271 114.898 446.224 118.76C445.177 122.623 443.027 126.096 440.036 128.754L440.016 128.696Z" fill="#DBD2FC"/>
<path d="M450.224 43.6826C450.224 43.9523 431.831 50.8666 408.95 59.0906C386.069 67.3147 367.406 73.9208 367.31 73.7282C367.214 73.5356 385.703 66.5635 408.603 58.3202C431.503 50.0769 450.128 43.4323 450.224 43.6826Z" fill="#263238"/>
<path d="M472.065 47.2266C472.15 47.3937 472.221 47.5676 472.277 47.7466C472.431 48.1318 472.605 48.6325 472.836 49.2489C473.336 50.6548 474.03 52.6001 474.896 55.0269L482.292 76.5595C485.374 85.6888 489.053 96.5129 493.136 108.531C495.062 114.56 497.334 120.838 499.453 127.444C500.587 130.849 501.077 134.434 500.897 138.018C500.734 139.882 500.204 141.695 499.337 143.353C498.412 145.006 497.176 146.464 495.697 147.648C492.722 149.82 489.419 151.504 485.913 152.637L475.994 156.2L457.216 162.921L425.418 174.246L403.943 181.796L398.165 183.722L396.624 184.223C396.459 184.296 396.283 184.342 396.104 184.358C396.104 184.358 396.258 184.358 396.585 184.127L398.088 183.53L403.866 181.353L425.225 173.495L456.965 161.939L475.705 155.16L485.624 151.577C489.03 150.491 492.237 148.858 495.119 146.743C496.495 145.644 497.646 144.291 498.509 142.756C499.325 141.223 499.817 139.538 499.954 137.806C500.131 134.353 499.661 130.898 498.567 127.618C496.487 121.069 494.291 114.733 492.308 108.704C488.301 96.667 484.604 85.8043 481.676 76.6751C478.748 67.5459 476.283 60.2078 474.588 55.0461C473.779 52.5231 473.163 50.5585 472.662 49.1333L472.2 47.5925C472.142 47.4758 472.097 47.3531 472.065 47.2266V47.2266Z" fill="#263238"/>
<path d="M417.829 20.6669C417.829 20.6669 416.808 20.1661 414.921 19.3957C412.23 18.362 409.385 17.789 406.504 17.7009C402.234 17.5544 397.985 18.357 394.062 20.0506C389.292 22.1595 385.214 25.5706 382.294 29.8925C379.356 34.2019 377.779 39.2947 377.768 44.5108C377.809 48.786 378.457 53.0337 379.694 57.1261C380.696 60.6314 381.736 63.4241 382.429 65.3694C382.838 66.3574 383.173 67.3746 383.431 68.4124C382.884 67.4886 382.426 66.5148 382.063 65.5042C381.274 63.5782 380.137 60.8433 379.02 57.3187C377.649 53.1833 376.903 48.8665 376.805 44.5108C376.754 39.0976 378.368 33.7994 381.428 29.3339C384.449 24.8542 388.694 21.3376 393.658 19.2031C397.703 17.5002 402.085 16.7491 406.466 17.0075C409.409 17.1575 412.3 17.8428 414.998 19.0298C415.719 19.3625 416.414 19.7488 417.078 20.1854C417.352 20.3058 417.605 20.4682 417.829 20.6669V20.6669Z" fill="#263238"/>
<path d="M418.715 96.0315C419.022 95.8452 419.344 95.6842 419.678 95.55C420.642 95.115 421.64 94.7607 422.663 94.4907C424.286 94.0116 425.961 93.7271 427.652 93.6433C429.951 93.5197 432.251 93.8671 434.412 94.6641C439.342 96.3975 443.868 101.424 446.103 108.146C447.174 111.753 447.174 115.594 446.103 119.201C444.915 123.116 442.785 126.681 439.901 129.582L440.016 129.062C442.578 136.092 445.371 143.719 448.26 151.674L448.433 152.155L447.952 152.328L443.541 153.792L433.911 157.009L433.43 157.163L433.275 156.681C430.637 148.708 427.748 141.273 425.571 133.974L425.995 134.301C422.23 133.988 418.64 132.575 415.672 130.237C412.986 128.169 410.784 125.54 409.22 122.533C407.808 119.867 407.105 116.882 407.178 113.866C407.267 110.784 408.037 107.759 409.432 105.008C410.827 102.258 412.813 99.8503 415.248 97.9575C416.25 97.144 417.375 96.4939 418.58 96.0315C417.492 96.677 416.438 97.3777 415.421 98.1308C412.747 100.394 410.698 103.305 409.47 106.586C408.416 109.06 407.923 111.737 408.027 114.424C408.13 117.112 408.827 119.743 410.067 122.129C411.606 125.021 413.755 127.545 416.365 129.525C419.197 131.747 422.619 133.086 426.207 133.377H426.534L426.631 133.666C428.749 140.83 431.658 148.322 434.335 156.335L433.699 156.026L443.329 152.81L447.72 151.327L447.412 151.982C444.543 144.027 441.769 136.381 439.227 129.351V129.062L439.458 128.831C442.258 126.05 444.346 122.634 445.544 118.874C446.566 115.423 446.566 111.751 445.544 108.3C443.445 101.829 439.111 96.9175 434.412 95.1841C432.332 94.3819 430.111 94.0085 427.883 94.0863C426.219 94.1244 424.565 94.3505 422.952 94.7603C420.082 95.473 418.734 96.1278 418.715 96.0315Z" fill="#263238"/>
<path d="M359.182 652.145L166.794 651.259C155.684 651.197 145.052 646.729 137.234 638.835C129.415 630.941 125.05 620.267 125.096 609.156L127.138 126.867C127.16 121.362 128.268 115.916 130.396 110.84C132.525 105.764 135.633 101.157 139.543 97.2826C143.453 93.4083 148.089 90.3425 153.184 88.2607C158.28 86.1788 163.736 85.1216 169.24 85.1495L361.609 86.0354C372.719 86.0915 383.353 90.5549 391.175 98.4454C398.997 106.336 403.367 117.008 403.326 128.119L401.284 610.389C401.262 615.895 400.155 621.343 398.027 626.421C395.898 631.5 392.791 636.109 388.881 639.987C384.972 643.864 380.337 646.933 375.241 649.019C370.145 651.105 364.688 652.167 359.182 652.145V652.145Z" fill="#455A64"/>
<path d="M361.32 102.618H324.033C322.816 102.641 321.616 102.903 320.5 103.389C319.385 103.876 318.376 104.577 317.532 105.454C316.688 106.33 316.025 107.364 315.58 108.497C315.136 109.63 314.919 110.839 314.942 112.056V118.816C314.965 120.032 314.748 121.24 314.303 122.372C313.858 123.503 313.195 124.536 312.35 125.411C311.506 126.286 310.497 126.985 309.382 127.47C308.267 127.954 307.067 128.214 305.851 128.234L233.164 127.907C230.705 127.841 228.372 126.802 226.679 125.018C224.985 123.234 224.069 120.851 224.131 118.392V111.632C224.193 109.176 223.279 106.796 221.59 105.012C219.9 103.229 217.573 102.188 215.117 102.117H202.001L169.355 101.963C161.591 101.917 154.124 104.95 148.59 110.397C143.056 115.844 139.906 123.262 139.83 131.027L137.904 601.78C137.886 605.632 138.627 609.45 140.085 613.015C141.543 616.581 143.689 619.824 146.4 622.561C149.111 625.297 152.335 627.473 155.887 628.963C159.439 630.454 163.25 631.23 167.102 631.247L359.086 632.133C362.94 632.151 366.761 631.409 370.329 629.951C373.897 628.492 377.142 626.345 379.881 623.632C382.619 620.919 384.796 617.693 386.287 614.138C387.778 610.584 388.555 606.771 388.573 602.916L390.499 132.163C390.545 124.377 387.497 116.89 382.026 111.35C376.554 105.81 369.106 102.669 361.32 102.618V102.618Z" fill="white"/>
<path d="M335.821 569.327L193.066 568.71C191.583 568.71 190.389 567.092 190.408 565.128L190.563 527.783C190.563 525.857 191.776 524.2 193.259 524.2L336.014 524.855C336.836 524.997 337.571 525.451 338.066 526.122C338.561 526.793 338.778 527.63 338.672 528.457L338.537 565.763C338.537 567.747 337.304 569.346 335.821 569.327Z" fill="#DBD2FC"/>
<path d="M247.913 546.064C247.636 546.064 247.408 546.121 247.23 546.235C247.051 546.349 246.961 546.522 246.961 546.755C246.961 546.983 247.051 547.159 247.23 547.284C247.408 547.403 247.788 547.533 248.368 547.674C248.953 547.815 249.393 548.013 249.685 548.268C249.983 548.523 250.132 548.899 250.132 549.398C250.132 549.891 249.945 550.293 249.571 550.602C249.197 550.911 248.707 551.065 248.1 551.065C247.211 551.065 246.422 550.759 245.733 550.146L246.335 549.423C246.91 549.921 247.506 550.171 248.124 550.171C248.433 550.171 248.677 550.106 248.856 549.975C249.04 549.84 249.132 549.664 249.132 549.447C249.132 549.225 249.046 549.054 248.872 548.935C248.704 548.81 248.411 548.699 247.994 548.601C247.577 548.498 247.259 548.406 247.043 548.325C246.826 548.238 246.633 548.127 246.465 547.991C246.129 547.737 245.961 547.346 245.961 546.821C245.961 546.295 246.151 545.891 246.53 545.609C246.915 545.322 247.39 545.178 247.953 545.178C248.316 545.178 248.677 545.238 249.035 545.357C249.393 545.476 249.702 545.644 249.962 545.861L249.449 546.585C249.281 546.433 249.054 546.308 248.766 546.211C248.479 546.113 248.195 546.064 247.913 546.064ZM251.319 545.316H252.278V551H251.319V545.316ZM258.113 545.316H259.072V551H258.031L254.811 546.853V551H253.852V545.316H254.811L258.113 549.561V545.316ZM264.585 548.235H265.544V550.179C265.007 550.77 264.24 551.065 263.243 551.065C262.403 551.065 261.698 550.789 261.129 550.236C260.565 549.683 260.283 548.983 260.283 548.138C260.283 547.292 260.57 546.587 261.145 546.024C261.725 545.46 262.424 545.178 263.243 545.178C264.061 545.178 264.742 545.417 265.284 545.894L264.772 546.625C264.549 546.436 264.324 546.306 264.097 546.235C263.874 546.159 263.614 546.121 263.316 546.121C262.741 546.121 262.259 546.308 261.869 546.682C261.478 547.051 261.283 547.539 261.283 548.146C261.283 548.748 261.473 549.233 261.852 549.601C262.232 549.965 262.69 550.146 263.227 550.146C263.769 550.146 264.221 550.03 264.585 549.797V548.235ZM270.311 549.699C270.571 550.003 270.924 550.154 271.368 550.154C271.813 550.154 272.165 550.003 272.425 549.699C272.685 549.395 272.815 548.983 272.815 548.463V545.316H273.775V548.504C273.775 549.322 273.55 549.954 273.1 550.398C272.65 550.837 272.073 551.057 271.368 551.057C270.663 551.057 270.086 550.837 269.636 550.398C269.186 549.954 268.961 549.322 268.961 548.504V545.316H269.921V548.463C269.921 548.983 270.051 549.395 270.311 549.699ZM277.227 545.316C278.089 545.316 278.718 545.482 279.114 545.812C279.51 546.143 279.707 546.652 279.707 547.341C279.707 548.029 279.504 548.534 279.098 548.853C278.696 549.173 278.078 549.333 277.244 549.333H276.235V551H275.276V545.316H277.227ZM277.349 548.463C277.881 548.463 278.241 548.363 278.431 548.162C278.626 547.956 278.723 547.658 278.723 547.268C278.723 546.872 278.602 546.593 278.358 546.43C278.114 546.268 277.731 546.186 277.211 546.186H276.235V548.463H277.349Z" fill="#E8E8E3"/>
<path d="M221.211 241.002L171.675 240.777L171.634 249.868L221.17 250.093L221.211 241.002Z" fill="#C996CC"/>
<path opacity="0.1" d="M221.211 241.002L171.675 240.777L171.634 249.868L221.17 250.093L221.211 241.002Z" fill="black"/>
<path d="M366.424 296.817C366.813 296.777 367.195 296.687 367.56 296.547C368.093 296.339 368.557 295.984 368.897 295.524C369.238 295.064 369.442 294.518 369.486 293.947C369.486 290.885 369.486 286.416 369.486 280.677C369.486 277.807 369.486 274.591 369.486 271.047C369.486 270.18 369.486 269.275 369.486 268.37C369.612 267.491 369.421 266.597 368.947 265.847C368.682 265.487 368.337 265.194 367.939 264.99C367.541 264.786 367.102 264.677 366.655 264.672H363.65H335.82L174.729 264.075C174.317 264.068 173.909 264.16 173.54 264.345C173.171 264.529 172.852 264.8 172.611 265.134C172.145 265.887 171.968 266.783 172.11 267.657C172.11 269.583 172.11 271.509 172.11 273.435C172.11 277.287 172.11 281.139 172.11 284.991C172.11 286.917 172.11 288.843 172.11 290.769C172.03 291.666 172.03 292.568 172.11 293.466C172.211 293.85 172.399 294.206 172.659 294.507C172.92 294.807 173.246 295.044 173.612 295.199C173.992 295.35 174.398 295.422 174.806 295.411H184.61L227.386 295.642L299.804 296.085L348.628 296.47L361.898 296.624H365.345C366.135 296.624 366.52 296.624 366.52 296.624H365.345H361.898H348.628H299.804L227.386 296.393L184.61 296.22H174.806C174.267 296.242 173.729 296.15 173.227 295.95C172.72 295.734 172.269 295.404 171.908 294.987C171.548 294.57 171.287 294.076 171.147 293.543C171.035 293.037 170.996 292.518 171.031 292.002V290.577C171.031 288.651 171.031 286.725 171.031 284.799C171.031 280.947 171.031 277.095 171.031 273.243C171.031 271.317 171.031 269.391 171.031 267.465C170.994 266.952 170.994 266.437 171.031 265.924C171.103 265.357 171.322 264.819 171.667 264.364C171.999 263.899 172.439 263.521 172.949 263.263C173.458 263.005 174.023 262.874 174.594 262.881L335.685 263.767L363.516 263.959H366.52C367.05 263.96 367.571 264.088 368.04 264.332C368.51 264.577 368.913 264.931 369.217 265.365C369.76 266.203 369.979 267.209 369.833 268.196C369.833 269.102 369.833 270.007 369.833 270.874C369.833 274.379 369.833 277.595 369.833 280.504C369.833 286.282 369.698 290.711 369.66 293.793C369.612 294.385 369.397 294.952 369.039 295.426C368.681 295.901 368.194 296.263 367.637 296.47C367.273 296.696 366.853 296.816 366.424 296.817V296.817Z" fill="#E0E0E0"/>
<path d="M277.154 273.743H186.555V282.237H277.154V273.743Z" fill="#C996CC"/>
<path opacity="0.2" d="M277.154 273.743H186.555V282.237H277.154V273.743Z" fill="white"/>
<path d="M220.873 323.933L171.337 323.708L171.296 332.799L220.832 333.024L220.873 323.933Z" fill="#C996CC"/>
<path opacity="0.1" d="M220.873 323.933L171.337 323.708L171.296 332.799L220.832 333.024L220.873 323.933Z" fill="black"/>
<path d="M365.172 379.75C365.561 379.703 365.947 379.632 366.328 379.539C366.866 379.367 367.361 379.083 367.779 378.704C368.198 378.325 368.53 377.861 368.754 377.343C369.058 376.565 369.176 375.728 369.101 374.897C369.101 373.972 369.101 372.971 369.101 371.854C369.101 369.62 369.101 367.077 369.101 364.15V351.92C369.193 351.034 368.997 350.143 368.543 349.377C368.068 348.592 367.32 348.01 366.443 347.74C365.484 347.569 364.507 347.517 363.535 347.586H335.82L175.288 346.989C174.424 346.991 173.591 347.307 172.943 347.877C172.294 348.447 171.875 349.234 171.763 350.09C171.763 351.92 171.763 353.942 171.763 355.868C171.763 359.72 171.763 363.572 171.763 367.424C171.763 369.35 171.763 371.276 171.763 373.202C171.691 374.102 171.73 375.008 171.879 375.898C172.119 376.679 172.614 377.357 173.285 377.824C173.996 378.276 174.832 378.492 175.673 378.441H178.35H183.916L226.539 378.653L298.706 379.096L347.357 379.481L360.588 379.635H364.036H365.191H364.036H360.588H347.357H298.706L226.5 379.558L183.878 379.404H175.5C174.458 379.466 173.424 379.188 172.553 378.614C171.676 378.007 171.037 377.116 170.742 376.091C170.57 375.112 170.518 374.116 170.588 373.125C170.588 371.199 170.588 369.273 170.588 367.347C170.588 363.495 170.588 359.643 170.588 355.791C170.588 353.865 170.588 351.939 170.588 350.013C170.729 348.912 171.266 347.899 172.099 347.165C172.932 346.432 174.004 346.027 175.114 346.026L335.647 346.912L363.362 347.124C364.394 347.061 365.43 347.132 366.443 347.336C367.444 347.663 368.288 348.349 368.812 349.262C369.311 350.11 369.526 351.095 369.429 352.074C369.429 352.979 369.429 353.865 369.429 354.751C369.429 358.237 369.429 361.434 369.429 364.381C369.429 367.328 369.429 369.812 369.429 372.085C369.429 373.183 369.429 374.204 369.429 375.147C369.499 376.009 369.36 376.874 369.024 377.67C368.774 378.202 368.412 378.673 367.964 379.052C367.515 379.431 366.99 379.709 366.424 379.866C366.003 379.901 365.579 379.862 365.172 379.75V379.75Z" fill="#E0E0E0"/>
<path d="M220.5 410.466L170.964 410.241L170.923 419.331L220.459 419.556L220.5 410.466Z" fill="#C996CC"/>
<path opacity="0.1" d="M220.5 410.466L170.964 410.241L170.923 419.331L220.459 419.556L220.5 410.466Z" fill="black"/>
<path d="M364.787 466.247C365.176 466.201 365.562 466.13 365.942 466.035C366.478 465.865 366.971 465.583 367.39 465.208C367.808 464.833 368.142 464.373 368.369 463.859C368.671 463.081 368.79 462.244 368.716 461.413C368.716 460.469 368.716 459.487 368.716 458.351C368.716 456.136 368.716 453.574 368.716 450.647V438.416C368.808 437.531 368.612 436.639 368.157 435.874C367.671 435.103 366.927 434.53 366.058 434.256C365.099 434.078 364.123 434.02 363.15 434.083H335.435L174.902 433.486C174.039 433.488 173.206 433.803 172.557 434.374C171.909 434.944 171.49 435.731 171.378 436.587C171.378 438.513 171.378 440.439 171.378 442.365C171.378 446.217 171.378 450.069 171.378 453.921C171.378 455.847 171.378 457.773 171.378 459.699C171.306 460.592 171.345 461.492 171.493 462.376C171.724 463.162 172.221 463.843 172.899 464.302C173.606 464.764 174.446 464.98 175.288 464.918H183.666L226.288 465.149L298.455 465.592L347.106 465.978L360.338 466.132H363.785C364.556 466.132 364.941 466.132 364.941 466.132C364.941 466.132 364.556 466.132 363.785 466.132H360.338H347.106H298.455L226.288 465.92L183.666 465.746H175.288C174.245 465.817 173.209 465.539 172.341 464.957C171.464 464.35 170.825 463.458 170.53 462.434C170.358 461.455 170.306 460.459 170.376 459.468C170.376 457.542 170.376 455.616 170.376 453.69C170.376 449.838 170.376 445.986 170.376 442.134C170.376 440.208 170.376 438.282 170.376 436.259C170.513 435.16 171.046 434.148 171.876 433.413C172.706 432.679 173.775 432.273 174.883 432.272L335.415 433.158L363.13 433.37C364.162 433.307 365.198 433.378 366.212 433.582C367.213 433.909 368.057 434.595 368.581 435.508C369.079 436.356 369.295 437.341 369.197 438.32C369.197 439.225 369.197 440.131 369.197 440.997C369.197 444.483 369.197 447.68 369.197 450.627C369.197 453.574 369.197 456.059 369.197 458.331C369.197 459.429 369.197 460.45 369.197 461.394C369.271 462.255 369.132 463.122 368.793 463.917C368.543 464.448 368.181 464.919 367.732 465.298C367.284 465.677 366.759 465.955 366.193 466.112C365.741 466.267 365.259 466.313 364.787 466.247V466.247Z" fill="#E0E0E0"/>
<path d="M275.22 359.078L184.622 358.667L184.583 367.161L275.181 367.572L275.22 359.078Z" fill="#C996CC"/>
<path opacity="0.2" d="M275.22 359.078L184.622 358.667L184.583 367.161L275.181 367.572L275.22 359.078Z" fill="white"/>
<path d="M192.814 450.531C192.757 451.306 192.474 452.047 192 452.662C191.526 453.277 190.882 453.74 190.147 453.993C189.413 454.245 188.62 454.277 187.868 454.083C187.116 453.889 186.437 453.479 185.915 452.903C185.394 452.327 185.054 451.611 184.936 450.843C184.818 450.075 184.928 449.289 185.252 448.584C185.577 447.878 186.101 447.283 186.761 446.872C187.42 446.462 188.186 446.254 188.962 446.274C190.035 446.334 191.041 446.815 191.762 447.611C192.484 448.408 192.861 449.457 192.814 450.531V450.531Z" fill="#C996CC"/>
<path d="M205.083 450.589C205.121 451.132 205.047 451.677 204.865 452.19C204.683 452.703 204.398 453.173 204.027 453.571C203.655 453.969 203.206 454.287 202.707 454.504C202.208 454.721 201.669 454.833 201.125 454.833C200.581 454.833 200.042 454.721 199.543 454.504C199.044 454.287 198.595 453.969 198.223 453.571C197.852 453.173 197.567 452.703 197.385 452.19C197.203 451.677 197.129 451.132 197.167 450.589C197.129 450.046 197.203 449.501 197.385 448.988C197.567 448.475 197.852 448.005 198.223 447.606C198.595 447.208 199.044 446.891 199.543 446.674C200.042 446.457 200.581 446.345 201.125 446.345C201.669 446.345 202.208 446.457 202.707 446.674C203.206 446.891 203.655 447.208 204.027 447.606C204.398 448.005 204.683 448.475 204.865 448.988C205.047 449.501 205.121 450.046 205.083 450.589V450.589Z" fill="#C996CC"/>
<path d="M217.371 450.647C217.314 451.421 217.031 452.162 216.557 452.778C216.083 453.393 215.438 453.856 214.704 454.108C213.969 454.361 213.177 454.392 212.424 454.198C211.672 454.005 210.993 453.595 210.472 453.019C209.951 452.443 209.61 451.726 209.492 450.958C209.374 450.191 209.484 449.405 209.809 448.699C210.133 447.993 210.658 447.398 211.317 446.988C211.977 446.577 212.742 446.37 213.519 446.39C214.59 446.455 215.593 446.937 216.313 447.732C217.033 448.528 217.413 449.574 217.371 450.647Z" fill="#C996CC"/>
<path d="M229.639 450.704C229.582 451.479 229.299 452.22 228.825 452.835C228.351 453.451 227.707 453.913 226.972 454.166C226.238 454.418 225.445 454.45 224.693 454.256C223.941 454.062 223.262 453.652 222.741 453.076C222.219 452.5 221.879 451.784 221.761 451.016C221.643 450.248 221.753 449.463 222.077 448.757C222.402 448.051 222.926 447.456 223.586 447.045C224.245 446.635 225.011 446.427 225.787 446.448C226.859 446.512 227.862 446.994 228.582 447.79C229.302 448.586 229.682 449.632 229.639 450.704Z" fill="#C996CC"/>
<path d="M241.908 450.743C241.855 451.519 241.575 452.262 241.103 452.88C240.631 453.498 239.987 453.964 239.253 454.219C238.518 454.475 237.725 454.509 236.971 454.317C236.218 454.125 235.537 453.716 235.014 453.141C234.491 452.565 234.148 451.849 234.029 451.08C233.91 450.312 234.019 449.525 234.343 448.818C234.667 448.111 235.192 447.515 235.852 447.104C236.512 446.693 237.278 446.485 238.056 446.506C239.124 446.57 240.124 447.049 240.843 447.841C241.563 448.632 241.945 449.674 241.908 450.743Z" fill="#C996CC"/>
<path d="M254.196 450.801C254.143 451.573 253.866 452.312 253.399 452.929C252.931 453.545 252.294 454.011 251.565 454.27C250.836 454.529 250.047 454.569 249.295 454.385C248.544 454.201 247.862 453.802 247.335 453.236C246.807 452.67 246.457 451.962 246.327 451.199C246.196 450.437 246.292 449.653 246.601 448.944C246.911 448.235 247.421 447.632 248.069 447.209C248.717 446.786 249.474 446.562 250.248 446.563C251.332 446.604 252.357 447.072 253.097 447.866C253.837 448.661 254.232 449.716 254.196 450.801V450.801Z" fill="#C996CC"/>
<path d="M266.464 450.859C266.502 451.401 266.428 451.946 266.246 452.46C266.065 452.973 265.779 453.443 265.408 453.841C265.037 454.239 264.588 454.556 264.089 454.773C263.589 454.99 263.051 455.102 262.507 455.102C261.962 455.102 261.424 454.99 260.925 454.773C260.425 454.556 259.976 454.239 259.605 453.841C259.234 453.443 258.948 452.973 258.767 452.46C258.585 451.946 258.511 451.401 258.549 450.859C258.511 450.316 258.585 449.771 258.767 449.258C258.948 448.744 259.234 448.274 259.605 447.876C259.976 447.478 260.425 447.161 260.925 446.944C261.424 446.727 261.962 446.615 262.507 446.615C263.051 446.615 263.589 446.727 264.089 446.944C264.588 447.161 265.037 447.478 265.408 447.876C265.779 448.274 266.065 448.744 266.246 449.258C266.428 449.771 266.502 450.316 266.464 450.859Z" fill="#C996CC"/>
<path d="M278.733 450.916C278.681 451.688 278.404 452.428 277.936 453.044C277.469 453.661 276.831 454.127 276.102 454.386C275.373 454.644 274.584 454.684 273.833 454.501C273.081 454.317 272.4 453.917 271.872 453.351C271.345 452.785 270.994 452.077 270.864 451.315C270.734 450.552 270.829 449.768 271.139 449.059C271.448 448.35 271.958 447.747 272.606 447.324C273.254 446.901 274.011 446.677 274.785 446.679C275.87 446.719 276.895 447.188 277.635 447.982C278.375 448.776 278.77 449.831 278.733 450.916V450.916Z" fill="#C996CC"/>
<path d="M291.002 450.974C290.948 451.75 290.668 452.493 290.196 453.111C289.724 453.729 289.081 454.195 288.347 454.45C287.612 454.706 286.819 454.74 286.065 454.548C285.311 454.356 284.631 453.947 284.107 453.372C283.584 452.796 283.242 452.08 283.123 451.311C283.003 450.543 283.113 449.756 283.437 449.049C283.761 448.342 284.286 447.746 284.946 447.335C285.606 446.924 286.372 446.716 287.15 446.737C288.217 446.801 289.218 447.281 289.937 448.072C290.657 448.864 291.039 449.905 291.002 450.974V450.974Z" fill="#C996CC"/>
<g opacity="0.2">
<path opacity="0.2" d="M192.814 450.531C192.757 451.306 192.474 452.047 192 452.662C191.526 453.277 190.882 453.74 190.147 453.993C189.413 454.245 188.62 454.277 187.868 454.083C187.116 453.889 186.437 453.479 185.915 452.903C185.394 452.327 185.054 451.611 184.936 450.843C184.818 450.075 184.928 449.289 185.252 448.584C185.577 447.878 186.101 447.283 186.761 446.872C187.42 446.462 188.186 446.254 188.962 446.274C190.035 446.334 191.041 446.815 191.762 447.611C192.484 448.408 192.861 449.457 192.814 450.531V450.531Z" fill="white"/>
<path opacity="0.2" d="M205.083 450.589C205.121 451.132 205.046 451.676 204.865 452.19C204.683 452.703 204.398 453.173 204.026 453.571C203.655 453.969 203.206 454.286 202.707 454.503C202.208 454.72 201.669 454.832 201.125 454.832C200.58 454.832 200.042 454.72 199.543 454.503C199.044 454.286 198.594 453.969 198.223 453.571C197.852 453.173 197.567 452.703 197.385 452.19C197.203 451.676 197.129 451.132 197.167 450.589C197.129 450.046 197.203 449.501 197.385 448.988C197.567 448.475 197.852 448.004 198.223 447.606C198.594 447.208 199.044 446.891 199.543 446.674C200.042 446.457 200.58 446.345 201.125 446.345C201.669 446.345 202.208 446.457 202.707 446.674C203.206 446.891 203.655 447.208 204.026 447.606C204.398 448.004 204.683 448.475 204.865 448.988C205.046 449.501 205.121 450.046 205.083 450.589V450.589Z" fill="white"/>
<path opacity="0.2" d="M217.371 450.646C217.314 451.421 217.031 452.162 216.557 452.777C216.083 453.393 215.438 453.855 214.704 454.108C213.969 454.361 213.176 454.392 212.424 454.198C211.672 454.005 210.993 453.594 210.472 453.018C209.951 452.442 209.61 451.726 209.492 450.958C209.374 450.19 209.484 449.405 209.809 448.699C210.133 447.993 210.658 447.398 211.317 446.988C211.977 446.577 212.742 446.369 213.519 446.39C214.59 446.454 215.593 446.936 216.313 447.732C217.033 448.528 217.413 449.574 217.371 450.646Z" fill="white"/>
<path opacity="0.2" d="M229.639 450.704C229.582 451.479 229.299 452.22 228.825 452.835C228.351 453.451 227.707 453.913 226.972 454.166C226.238 454.418 225.445 454.45 224.693 454.256C223.941 454.062 223.262 453.652 222.741 453.076C222.219 452.5 221.879 451.784 221.761 451.016C221.643 450.248 221.753 449.463 222.077 448.757C222.402 448.051 222.926 447.456 223.586 447.045C224.245 446.635 225.011 446.427 225.787 446.448C226.859 446.512 227.862 446.994 228.582 447.79C229.302 448.586 229.682 449.632 229.639 450.704Z" fill="white"/>
<path opacity="0.2" d="M241.908 450.743C241.855 451.519 241.575 452.262 241.103 452.88C240.631 453.498 239.987 453.964 239.253 454.219C238.518 454.475 237.725 454.509 236.971 454.317C236.218 454.125 235.537 453.716 235.014 453.141C234.491 452.565 234.148 451.849 234.029 451.08C233.91 450.312 234.019 449.525 234.343 448.818C234.667 448.111 235.192 447.515 235.852 447.104C236.512 446.693 237.278 446.485 238.056 446.506C239.124 446.57 240.124 447.049 240.843 447.841C241.563 448.632 241.945 449.674 241.908 450.743Z" fill="white"/>
<path opacity="0.2" d="M254.196 450.8C254.143 451.572 253.866 452.312 253.399 452.928C252.931 453.545 252.294 454.011 251.564 454.27C250.835 454.529 250.047 454.569 249.295 454.385C248.543 454.201 247.862 453.802 247.335 453.236C246.807 452.67 246.457 451.962 246.326 451.199C246.196 450.437 246.292 449.652 246.601 448.943C246.911 448.234 247.421 447.631 248.069 447.208C248.716 446.786 249.474 446.561 250.247 446.563C251.332 446.603 252.357 447.072 253.097 447.866C253.837 448.66 254.232 449.715 254.196 450.8V450.8Z" fill="white"/>
<path opacity="0.2" d="M266.464 450.858C266.502 451.401 266.428 451.946 266.246 452.459C266.065 452.972 265.779 453.443 265.408 453.841C265.037 454.239 264.588 454.556 264.089 454.773C263.589 454.99 263.051 455.102 262.507 455.102C261.962 455.102 261.424 454.99 260.925 454.773C260.425 454.556 259.976 454.239 259.605 453.841C259.234 453.443 258.948 452.972 258.767 452.459C258.585 451.946 258.511 451.401 258.549 450.858C258.511 450.315 258.585 449.77 258.767 449.257C258.948 448.744 259.234 448.274 259.605 447.876C259.976 447.478 260.425 447.161 260.925 446.944C261.424 446.727 261.962 446.615 262.507 446.615C263.051 446.615 263.589 446.727 264.089 446.944C264.588 447.161 265.037 447.478 265.408 447.876C265.779 448.274 266.065 448.744 266.246 449.257C266.428 449.77 266.502 450.315 266.464 450.858Z" fill="white"/>
<path opacity="0.2" d="M278.733 450.916C278.68 451.688 278.403 452.428 277.936 453.044C277.468 453.661 276.831 454.127 276.101 454.386C275.372 454.644 274.584 454.684 273.832 454.501C273.081 454.317 272.399 453.917 271.872 453.351C271.344 452.785 270.994 452.077 270.864 451.315C270.733 450.552 270.829 449.768 271.138 449.059C271.448 448.35 271.958 447.747 272.606 447.324C273.253 446.901 274.011 446.677 274.784 446.679C275.869 446.719 276.894 447.188 277.634 447.982C278.374 448.776 278.769 449.831 278.733 450.916V450.916Z" fill="white"/>
<path opacity="0.2" d="M291.002 450.974C290.948 451.75 290.668 452.493 290.196 453.111C289.724 453.729 289.081 454.195 288.347 454.45C287.612 454.706 286.819 454.74 286.065 454.548C285.311 454.356 284.631 453.947 284.107 453.372C283.584 452.796 283.242 452.08 283.123 451.311C283.003 450.543 283.113 449.756 283.437 449.049C283.761 448.342 284.286 447.746 284.946 447.335C285.606 446.924 286.372 446.716 287.15 446.737C288.217 446.801 289.218 447.281 289.937 448.072C290.657 448.864 291.039 449.905 291.002 450.974V450.974Z" fill="white"/>
</g>
<path d="M273.571 172.937C274.909 172.347 276.044 171.378 276.835 170.148C277.626 168.919 278.038 167.484 278.02 166.022C278.07 165.072 277.926 164.121 277.597 163.229C277.267 162.336 276.76 161.52 276.105 160.829C275.45 160.139 274.661 159.589 273.787 159.214C272.912 158.838 271.971 158.644 271.019 158.644C270.068 158.644 269.126 158.838 268.252 159.214C267.377 159.589 266.589 160.139 265.934 160.829C265.279 161.52 264.771 162.336 264.442 163.229C264.112 164.121 263.968 165.072 264.018 166.022C263.989 167.499 264.398 168.951 265.193 170.195C265.988 171.439 267.134 172.42 268.487 173.014C257.701 174.631 258.182 186.342 258.182 186.342L283.683 186.457C283.683 186.457 284.28 174.535 273.571 172.937Z" fill="#C996CC"/>
<path opacity="0.1" d="M273.571 172.937C274.909 172.347 276.044 171.378 276.835 170.148C277.626 168.919 278.038 167.484 278.02 166.022C278.07 165.072 277.926 164.121 277.597 163.229C277.267 162.336 276.76 161.52 276.105 160.829C275.45 160.139 274.661 159.589 273.787 159.214C272.912 158.838 271.971 158.644 271.019 158.644C270.068 158.644 269.126 158.838 268.252 159.214C267.377 159.589 266.589 160.139 265.934 160.829C265.279 161.52 264.771 162.336 264.442 163.229C264.112 164.121 263.968 165.072 264.018 166.022C263.989 167.499 264.398 168.951 265.193 170.195C265.988 171.439 267.134 172.42 268.487 173.014C257.701 174.631 258.182 186.342 258.182 186.342L283.683 186.457C283.683 186.457 284.28 174.535 273.571 172.937Z" fill="black"/>
<path d="M315.008 194.01L224.121 193.597L224.072 204.46L314.959 204.872L315.008 194.01Z" fill="#C996CC"/>
<path opacity="0.2" d="M315.008 194.01L224.121 193.597L224.072 204.46L314.959 204.872L315.008 194.01Z" fill="white"/>
<path d="M42.194 227.426H41.4231L39.1924 227.59C37.9853 227.663 36.7848 227.822 35.6004 228.066C34.8332 228.174 34.0723 228.322 33.3205 228.509L30.7783 229.214C26.4512 230.542 22.3686 232.564 18.6901 235.201C13.83 238.729 9.77181 243.245 6.78235 248.454C5.02527 251.456 3.62699 254.654 2.61627 257.983C1.55424 261.601 0.942759 265.336 0.795678 269.104C0.697927 271.083 0.730798 273.066 0.894085 275.041C0.894085 276.042 1.17292 277.042 1.30413 278.059C1.4145 279.084 1.60646 280.099 1.87819 281.093C3.35308 287.675 6.34568 293.821 10.6173 299.041C14.8889 304.261 20.3212 308.41 26.481 311.158C30.9392 313.082 35.7176 314.155 40.5702 314.323C45.5821 314.599 50.5991 313.88 55.3318 312.208L56.7752 311.666H56.972L57.1361 311.765L77.8188 322.262L77.2119 322.787C74.9977 315.931 72.8654 309.288 70.7988 302.908V302.662L70.9792 302.481C75.9965 297.428 79.7212 291.239 81.8372 284.439C83.7538 278.223 84.3132 271.667 83.4774 265.216C82.734 259.483 80.8906 253.947 78.0484 248.913C75.5985 244.588 72.4379 240.707 68.6994 237.432C65.6149 234.839 62.2011 232.666 58.5466 230.969C55.7815 229.777 52.9016 228.87 49.952 228.263L46.6717 227.722L44.2934 227.541L42.85 227.443H42.358C42.5215 227.425 42.6865 227.425 42.85 227.443H44.3098L46.6881 227.541L49.9684 228.017C52.9547 228.579 55.8738 229.453 58.6778 230.625C62.3951 232.302 65.8705 234.469 69.011 237.071C72.8183 240.331 76.0459 244.213 78.5569 248.552C81.4798 253.64 83.3798 259.251 84.1499 265.069C85.055 271.619 84.5347 278.289 82.6245 284.62C80.4946 291.561 76.7124 297.881 71.6025 303.039L71.7009 302.613C73.7675 308.993 75.9162 315.636 78.1468 322.475L78.4585 323.476L77.5235 323L56.8408 312.519H57.2016L55.7255 313.06C50.9016 314.758 45.7918 315.493 40.685 315.226C35.7278 315.037 30.8494 313.924 26.3006 311.945C17.6235 308.229 10.4042 301.77 5.74903 293.559C3.60681 289.766 2.04234 285.675 1.1073 281.421C0.851252 280.401 0.659522 279.366 0.533242 278.321C0.402027 277.288 0.188807 276.271 0.139601 275.254C-0.304302 269.418 0.312524 263.55 1.96021 257.934C2.99609 254.559 4.43333 251.321 6.24109 248.29C9.30187 243.034 13.4446 238.488 18.3949 234.955C22.1339 232.311 26.2851 230.305 30.6798 229.017L33.2549 228.361C34.0129 228.185 34.7793 228.049 35.5512 227.951C36.7479 227.73 37.9596 227.598 39.176 227.558L41.4231 227.476C41.6786 227.441 41.9362 227.425 42.194 227.426Z" fill="#C996CC"/>
<path d="M51.5431 265.676H48.5088L41.948 256.458V250.405C41.948 250.405 37.2571 250.11 37.8147 258.032C38.3724 265.954 37.8147 263.937 37.8147 263.937C37.8147 263.937 27.8588 263.937 27.0387 264.839C26.2186 265.741 26.1694 275.353 26.0546 280.716C25.9917 282.009 26.3627 283.286 27.1086 284.344C27.8545 285.402 28.9326 286.18 30.1715 286.555C30.5187 286.651 30.8772 286.701 31.2376 286.703C33.7307 286.703 46.4093 284.685 46.4093 284.685H51.6415L51.5431 265.676Z" fill="#C996CC"/>
<path d="M60.2195 264.052L58.3497 284.784H53.1667V264.478L60.2195 264.052Z" fill="#C996CC"/>
</svg>
